<?xml version="1.0" encoding="UTF-8"?>
<svg version="1.1" xmlns="http://www.w3.org/2000/svg" width="828" height="301">
<path d="M0 0 C1.57507091 0.0236209 3.15024412 0.04113141 4.72544861 0.05284119 C8.84305273 0.10029698 12.95364017 0.23259737 17.06860352 0.38275146 C21.27465899 0.5197018 25.48173644 0.57018726 29.68945312 0.63085938 C35.81264138 0.73378954 41.9342308 0.86189212 48.05493164 1.06665039 C49.28385635 1.10665665 50.51278107 1.1466629 51.77894592 1.18788147 C54.52734375 1.40234375 54.52734375 1.40234375 55.52734375 2.40234375 C55.62419693 4.49061696 55.64921257 6.58222737 55.64759827 8.67274475 C55.6488799 9.66632961 55.6488799 9.66632961 55.65018743 10.67998689 C55.65184408 12.91567245 55.64631789 15.15128417 55.64086914 17.38696289 C55.64058728 18.98314919 55.64074498 20.57933562 55.64131165 22.17552185 C55.64159967 26.5224427 55.6357021 30.86933619 55.62873769 35.21625066 C55.62250503 39.75398322 55.62190042 44.29171634 55.62071228 48.82945251 C55.6175987 57.42842215 55.60938497 66.02737914 55.59936279 74.62634319 C55.58820247 84.41336103 55.58269141 94.20037946 55.57766736 103.98740208 C55.56720237 124.12572304 55.54960243 144.2640326 55.52734375 164.40234375 C59.48734375 164.07234375 63.44734375 163.74234375 67.52734375 163.40234375 C68.08381592 161.85297119 68.64028809 160.30359863 69.21362305 158.70727539 C80.42502781 127.50368518 91.71900092 96.33406124 103.21655273 65.23461914 C108.85409292 49.98054327 114.42854793 34.7056344 119.88696289 19.38647461 C120.13195023 18.70205795 120.37693756 18.0176413 120.62934875 17.31248474 C121.27291961 15.51441795 121.91344746 13.71526278 122.55371094 11.91601562 C123.52734375 9.40234375 123.52734375 9.40234375 124.52734375 8.40234375 C128.07229507 8.01145558 131.65204176 7.96672305 135.21484375 7.83984375 C136.36138428 7.79811035 137.5079248 7.75637695 138.68920898 7.71337891 C151.15374716 7.32249099 163.62005224 7.29194128 176.08984375 7.27734375 C177.65573746 7.27346146 177.65573746 7.27346146 179.25326538 7.26950073 C182.24179528 7.263659 185.23021934 7.26522217 188.21875 7.26953125 C189.12905975 7.26755234 190.03936951 7.26557343 190.9772644 7.26353455 C192.22903976 7.26819481 192.22903976 7.26819481 193.50610352 7.27294922 C194.23740982 7.27374481 194.96871613 7.27454041 195.72218323 7.27536011 C197.52734375 7.40234375 197.52734375 7.40234375 199.52734375 8.40234375 C200.45742798 10.42842102 200.45742798 10.42842102 201.42822266 13.1418457 C201.79744339 14.16255157 202.16666412 15.18325745 202.54707336 16.2348938 C202.94532822 17.3587851 203.34358307 18.48267639 203.75390625 19.640625 C204.17403488 20.80786102 204.59416351 21.97509705 205.02702332 23.17770386 C206.17098699 26.35962934 207.30861618 29.54368874 208.44360733 32.72881699 C209.62602745 36.04220394 210.8164773 39.35270068 212.0065918 42.66333008 C213.45310602 46.68845258 214.8990485 50.7137741 216.34153748 54.74034119 C219.27023924 62.9145857 222.21883908 71.08128865 225.1953125 79.23828125 C225.55258423 80.21760117 225.90985596 81.19692108 226.2779541 82.20591736 C227.61205169 85.86106421 228.94697281 89.5159076 230.28375244 93.17007446 C235.17107737 106.53604674 239.85093209 119.95766023 244.52734375 133.40234375 C244.85734375 92.15234375 245.18734375 50.90234375 245.52734375 8.40234375 C266.54709792 3.14740521 288.8635879 8.04720021 310.52734375 8.40234375 C310.52734375 77.37234375 310.52734375 146.34234375 310.52734375 217.40234375 C335.88970122 220.5553486 335.88970122 220.5553486 359.52734375 216.40234375 C358.97046875 215.5515625 358.41359375 214.70078125 357.83984375 213.82421875 C337.1536085 181.34596235 332.23731617 141.96430251 340.04296875 104.53417969 C345.57009136 80.20815416 357.01881375 59.08620953 374.52734375 41.40234375 C375.12933594 40.73976562 375.73132813 40.0771875 376.3515625 39.39453125 C395.24283861 18.93294756 426.44942171 7.16069936 453.71484375 5.5234375 C475.87454986 4.81959438 497.66965164 5.07336544 518.52734375 13.40234375 C519.61015625 13.81613281 520.69296875 14.22992188 521.80859375 14.65625 C537.28836887 20.94960518 549.69511334 29.70121839 561.52734375 41.40234375 C562.25179687 42.05460937 562.97625 42.706875 563.72265625 43.37890625 C578.75127801 57.19063556 587.32628037 77.03522615 592.52734375 96.40234375 C590.66860766 98.26107984 587.5882298 97.61756268 585.09912109 97.67456055 C584.42746918 97.6907695 583.75581726 97.70697845 583.06381226 97.72367859 C576.85253637 97.86415236 570.6398176 97.94205592 564.42729759 98.00259686 C560.25293748 98.04354133 556.08092828 98.10380721 551.90771484 98.21166992 C547.87329391 98.31559824 543.84096757 98.37002668 539.80528641 98.3900547 C538.27011148 98.40596152 536.73501104 98.43913567 535.20060349 98.49020958 C523.18473452 98.87087585 523.18473452 98.87087585 519.10333252 95.25454712 C517.31819963 92.71121388 515.93144943 90.1688991 514.52734375 87.40234375 C505.45133138 75.46590903 493.50925697 67.92023076 478.5625 65.68359375 C459.9828443 63.96192681 441.1815675 66.68713593 426.3515625 78.87890625 C412.44468949 91.92020625 405.28443616 110.14668162 404.40454102 129.0390625 C403.71740082 153.56725252 406.92450554 175.95501865 424.27734375 194.71484375 C434.36560231 204.21083664 447.73690151 209.91059155 461.52734375 210.40234375 C462.38972656 210.44230469 463.25210938 210.48226562 464.140625 210.5234375 C474.61979075 210.78124621 484.4461568 209.18657614 494.1875 205.3046875 C496.29195441 204.49311994 498.32952456 203.89469586 500.52734375 203.40234375 C500.52734375 202.74234375 500.52734375 202.08234375 500.52734375 201.40234375 C501.97650233 200.41909419 503.46397502 199.49219253 504.96484375 198.58984375 C511.91745269 193.90525112 517.85345071 186.42402286 520.52734375 178.40234375 C524.4798093 177.45747494 528.09564668 177.31078491 532.15356445 177.38061523 C532.79803024 177.39022278 533.44249603 177.39983032 534.10649109 177.409729 C536.22215359 177.44252985 538.33759717 177.48293297 540.453125 177.5234375 C541.92570744 177.54775716 543.39829783 177.57159978 544.87089539 177.59498596 C548.73594253 177.65764338 552.60084792 177.72676136 556.46575928 177.79724121 C560.41395646 177.86809093 564.36225369 177.93280813 568.31054688 177.99804688 C576.04958987 178.12682258 583.78849333 178.26242601 591.52734375 178.40234375 C589.04787394 200.22139614 575.40334502 221.61587198 559.52734375 236.40234375 C558.86734375 236.40234375 558.20734375 236.40234375 557.52734375 236.40234375 C557.32625 236.964375 557.12515625 237.52640625 556.91796875 238.10546875 C554.99130688 241.28770803 552.28407212 243.0764433 549.27734375 245.15234375 C548.65327637 245.58772461 548.02920898 246.02310547 547.38623047 246.47167969 C514.93173017 268.78160231 477.24655356 274.34047377 438.81640625 267.66015625 C424.27298039 264.89852468 411.52762283 259.32335564 398.52734375 252.40234375 C397.74101563 252.015625 396.9546875 251.62890625 396.14453125 251.23046875 C394.52734375 250.40234375 394.52734375 250.40234375 393.52734375 249.40234375 C393.52734375 255.34234375 393.52734375 261.28234375 393.52734375 267.40234375 C389.71153549 268.35629582 386.75106201 268.53560908 382.84043884 268.54951477 C381.83393346 268.5550298 381.83393346 268.5550298 380.80709463 268.56065625 C378.56010933 268.57166401 376.31317031 268.57553186 374.06616211 268.5793457 C372.45469517 268.58561222 370.84322967 268.59225919 369.23176575 268.59925842 C363.94358318 268.62026712 358.6554004 268.63065325 353.3671875 268.640625 C351.54705859 268.64467281 349.72692983 268.64878974 347.90680122 268.65297508 C339.36116628 268.67201447 330.81553994 268.68625189 322.26988786 268.69458705 C312.39735863 268.70437534 302.52505265 268.73074142 292.65260214 268.77108794 C285.02451029 268.80119624 277.39648268 268.81605062 269.76833254 268.81936806 C265.21025561 268.82172331 260.65241756 268.830746 256.09440422 268.85582924 C251.81059573 268.87902471 247.52718489 268.88337792 243.24333 268.87306786 C241.66910483 268.8725704 240.09486062 268.87895218 238.52069473 268.8926239 C236.3757353 268.91021502 234.23222324 268.90330226 232.08726501 268.89009094 C230.2851174 268.89367347 230.2851174 268.89367347 228.44656277 268.89732838 C225.52734375 268.40234375 225.52734375 268.40234375 223.67074203 266.49040508 C222.5885189 264.51406114 221.72369692 262.65332739 220.9934082 260.5234375 C220.73336502 259.77586182 220.47332184 259.02828613 220.20539856 258.25805664 C219.93652328 257.46004639 219.66764801 256.66203613 219.390625 255.83984375 C219.10632126 255.01154053 218.82201752 254.1832373 218.52909851 253.32983398 C217.931456 251.58275392 217.33744078 249.83442935 216.74682617 248.08496094 C215.8419435 245.40855426 214.92282358 242.73734837 214.00195312 240.06640625 C213.42231967 238.36617748 212.84351531 236.66566579 212.265625 234.96484375 C211.99067703 234.1668335 211.71572906 233.36882324 211.43244934 232.54663086 C211.05656929 231.42526733 211.05656929 231.42526733 210.6730957 230.28125 C210.34025322 229.30007202 210.34025322 229.30007202 210.00068665 228.29907227 C209.52734375 226.40234375 209.52734375 226.40234375 209.52734375 222.40234375 C177.84734375 222.40234375 146.16734375 222.40234375 113.52734375 222.40234375 C112.53734375 226.03234375 111.54734375 229.66234375 110.52734375 233.40234375 C109.66560277 236.085155 108.79009205 238.74714013 107.86328125 241.40625 C107.62574127 242.09621567 107.38820129 242.78618134 107.14346313 243.49705505 C106.64938415 244.93000619 106.15364577 246.36238624 105.65625 247.79418945 C104.89324986 249.99102697 104.13568347 252.18968375 103.37890625 254.38867188 C102.89484063 255.79047146 102.41047689 257.19216814 101.92578125 258.59375 C101.69974213 259.24888077 101.473703 259.90401154 101.24081421 260.57899475 C100.4282425 262.91478362 99.63466902 265.18769321 98.52734375 267.40234375 C95.7467391 268.32921197 94.09404926 268.52790948 91.22506714 268.52932739 C90.34731628 268.53214722 89.46956543 268.53496704 88.56521606 268.53787231 C87.60509613 268.53584808 86.6449762 268.53382385 85.65576172 268.53173828 C84.64255859 268.5334906 83.62935547 268.53524292 82.58544922 268.53704834 C79.23012591 268.54145652 75.87485512 268.53853291 72.51953125 268.53515625 C70.19450877 268.53582948 67.86948635 268.53679967 65.54446411 268.53805542 C60.67042369 268.5395309 55.79640158 268.53738221 50.92236328 268.53271484 C44.65948979 268.52701132 38.39665909 268.53030146 32.13378716 268.53628731 C27.3332995 268.53989154 22.53282209 268.53875508 17.73233414 268.53615952 C15.42214071 268.53549019 13.11194636 268.53631886 10.801754 268.53863907 C7.58118964 268.54116402 4.36069579 268.53732752 1.14013672 268.53173828 C0.17596832 268.53376251 -0.78820007 268.53578674 -1.78158569 268.53787231 C-2.6536969 268.53505249 -3.52580811 268.53223267 -4.42434692 268.52932739 C-5.18646044 268.52895037 -5.94857395 268.52857334 -6.73378181 268.52818489 C-8.47265625 268.40234375 -8.47265625 268.40234375 -9.47265625 267.40234375 C-9.56569643 265.92880027 -9.5901189 264.45083784 -9.58618164 262.97436523 C-9.58606834 261.56301552 -9.58606834 261.56301552 -9.58595276 260.12315369 C-9.58079147 259.10024734 -9.57563019 258.077341 -9.5703125 257.0234375 C-9.56889755 255.98163834 -9.5674826 254.93983917 -9.56602478 253.86647034 C-9.56040705 250.52423281 -9.54785155 247.18206118 -9.53515625 243.83984375 C-9.53014353 241.58007909 -9.52558023 239.32031338 -9.52148438 237.06054688 C-9.51043186 231.50778984 -9.49367649 225.9550715 -9.47265625 220.40234375 C-10.42213717 220.40372644 -10.42213717 220.40372644 -11.39079952 220.40513706 C-26.77135413 220.42719243 -42.15190326 220.44375537 -57.53246975 220.45415592 C-64.97030135 220.45931884 -72.40812242 220.46636146 -79.84594727 220.4777832 C-86.32646967 220.48773016 -92.80698444 220.49419721 -99.28751427 220.49643224 C-102.72096167 220.49773933 -106.15438725 220.50082505 -109.58782768 220.50807381 C-113.41459446 220.51608791 -117.2413396 220.51633488 -121.06811523 220.51586914 C-122.2146608 220.51946442 -123.36120636 220.52305969 -124.54249573 220.52676392 C-126.09696915 220.52470192 -126.09696915 220.52470192 -127.68284607 220.52259827 C-128.58896857 220.52352006 -129.49509108 220.52444185 -130.42867184 220.52539158 C-132.47265625 220.40234375 -132.47265625 220.40234375 -133.47265625 219.40234375 C-134.21423963 212.5176131 -134.13119912 205.49865468 -134.26220703 198.58105469 C-134.31841665 196.24337701 -134.39975714 193.90614527 -134.50830078 191.5703125 C-135.27949094 174.64764453 -133.07283656 164.31567645 -122.03845215 151.27423096 C-120.03910695 148.88404159 -118.29689783 146.35637135 -116.5625 143.76953125 C-115.51287472 142.27132489 -114.46213112 140.77390126 -113.41015625 139.27734375 C-112.83346191 138.45516357 -112.25676758 137.6329834 -111.66259766 136.78588867 C-105.46576812 127.95646913 -99.24121701 119.1466335 -93.01367188 110.33886719 C-85.39666581 99.56421041 -77.81639702 88.76435097 -70.25488281 77.95068359 C-67.32888892 73.76691315 -64.40067315 69.58469851 -61.47265625 65.40234375 C-60.30597866 63.73568473 -59.139312 62.06901806 -57.97265625 60.40234375 C-55.63932292 57.06901042 -53.30598958 53.73567708 -50.97265625 50.40234375 C-50.10592285 49.16411865 -50.10592285 49.16411865 -49.22167969 47.90087891 C-48.05835567 46.23903384 -46.89494461 44.5772497 -45.73144531 42.91552734 C-42.76290909 38.67559283 -39.79602681 34.43451647 -36.83203125 30.19140625 C-35.92517578 28.89396484 -35.92517578 28.89396484 -35 27.5703125 C-33.87181258 25.95613666 -32.74414651 24.34159621 -31.6171875 22.7265625 C-30.56220507 21.21760231 -29.49273685 19.71865472 -28.4082489 18.23075867 C-26.97155338 16.13136495 -25.73866078 14.11312419 -24.51789856 11.89704895 C-18.17615346 0.98205763 -12.17763377 -0.57490845 0 0 Z M-6.47265625 75.40234375 C-7.90707712 77.61706302 -9.29092884 79.84676818 -10.66015625 82.1015625 C-16.38499985 91.39139495 -22.47063684 100.42115057 -28.59683228 109.44946289 C-30.50881649 112.26815198 -32.41651941 115.08969398 -34.32299805 117.91210938 C-39.06686975 124.93469134 -43.81333472 131.95550956 -48.56884766 138.97021484 C-50.76027603 142.20339444 -52.94552411 145.44064847 -55.12524414 148.68173218 C-55.89316773 149.82086868 -56.66364335 150.9582893 -57.43676758 152.09390259 C-58.48233393 153.62997409 -59.51880766 155.17222338 -60.5546875 156.71484375 C-61.12421143 157.55660156 -61.69373535 158.39835937 -62.28051758 159.265625 C-63.71626944 161.43118394 -63.71626944 161.43118394 -63.47265625 164.40234375 C-44.33265625 164.40234375 -25.19265625 164.40234375 -5.47265625 164.40234375 C-5.47265625 135.03234375 -5.47265625 105.66234375 -5.47265625 75.40234375 C-5.80265625 75.40234375 -6.13265625 75.40234375 -6.47265625 75.40234375 Z M160.52734375 83.40234375 C160.1713208 84.44535645 159.81529785 85.48836914 159.44848633 86.56298828 C158.66117578 88.86948629 157.87379834 91.1759614 157.08628845 93.48239136 C155.53812876 98.01661998 153.99063626 102.55107442 152.44433594 107.0859375 C149.53933903 115.60245359 146.63049152 124.1174707 143.68925476 132.62155151 C142.49946434 136.06169296 141.31298804 139.5029739 140.1265564 142.9442749 C139.56487013 144.57009091 139.00144153 146.19530613 138.43618774 147.81988525 C134.38471012 159.44122324 134.38471012 159.44122324 131.52734375 171.40234375 C134.81699714 172.38829359 137.78691429 172.52345089 141.21386719 172.51586914 C142.92518829 172.51575584 142.92518829 172.51575584 144.67108154 172.51564026 C145.89724182 172.51047897 147.1234021 172.50531769 148.38671875 172.5 C149.64623352 172.49858505 150.90574829 172.4971701 152.20343018 172.49571228 C155.54399494 172.49106448 158.88449096 172.48208656 162.22503662 172.4710083 C165.63699755 172.46075973 169.0489656 172.45620729 172.4609375 172.45117188 C179.14975855 172.44014338 185.83854718 172.42340564 192.52734375 172.40234375 C186.09119503 152.97340516 179.59946593 133.56304739 173.03149414 114.17825317 C172.32230225 112.08328427 171.61461145 109.9878066 170.90844727 107.89181519 C169.90933611 104.9277285 168.90460287 101.96560462 167.8984375 99.00390625 C167.60198837 98.12095383 167.30553925 97.2380014 167.00010681 96.32829285 C165.46441645 91.82907328 163.78502946 87.6047771 161.52734375 83.40234375 C161.19734375 83.40234375 160.86734375 83.40234375 160.52734375 83.40234375 Z " fill="#FEFEFE" transform="translate(136.47265625,28.59765625)"/>
<path d="M0 0 C1.57507091 0.0236209 3.15024412 0.04113141 4.72544861 0.05284119 C8.84305273 0.10029698 12.95364017 0.23259737 17.06860352 0.38275146 C21.27465899 0.5197018 25.48173644 0.57018726 29.68945312 0.63085938 C35.81264138 0.73378954 41.9342308 0.86189212 48.05493164 1.06665039 C49.28385635 1.10665665 50.51278107 1.1466629 51.77894592 1.18788147 C54.52734375 1.40234375 54.52734375 1.40234375 55.52734375 2.40234375 C55.62419693 4.49061696 55.64921257 6.58222737 55.64759827 8.67274475 C55.6488799 9.66632961 55.6488799 9.66632961 55.65018743 10.67998689 C55.65184408 12.91567245 55.64631789 15.15128417 55.64086914 17.38696289 C55.64058728 18.98314919 55.64074498 20.57933562 55.64131165 22.17552185 C55.64159967 26.5224427 55.6357021 30.86933619 55.62873769 35.21625066 C55.62250503 39.75398322 55.62190042 44.29171634 55.62071228 48.82945251 C55.6175987 57.42842215 55.60938497 66.02737914 55.59936279 74.62634319 C55.58820247 84.41336103 55.58269141 94.20037946 55.57766736 103.98740208 C55.56720237 124.12572323 55.54940203 144.26403225 55.52734375 164.40234375 C59.81734375 164.07234375 64.10734375 163.74234375 68.52734375 163.40234375 C67.81392884 167.68283319 67.17142228 170.75544827 65.671875 174.67578125 C65.1140332 176.14700439 65.1140332 176.14700439 64.54492188 177.64794922 C64.14724609 178.68064941 63.74957031 179.71334961 63.33984375 180.77734375 C62.72592773 182.39406982 62.72592773 182.39406982 62.09960938 184.04345703 C60.91390244 187.16504062 59.72185791 190.28412145 58.52734375 193.40234375 C54.5451125 203.80600711 50.82781552 214.27525098 47.21289062 224.81225586 C42.83381672 237.51762167 38.17442186 250.11853714 33.5078125 262.72045898 C32.81912451 264.60423329 32.16160685 266.49955446 31.52734375 268.40234375 C25.84904297 268.4269908 20.17077306 268.44517837 14.49243164 268.45727539 C12.5591579 268.46231631 10.62588799 268.46914894 8.69262695 268.4777832 C5.92007503 268.4898594 3.14757334 268.49557432 0.375 268.5 C-0.92968483 268.50774193 -0.92968483 268.50774193 -2.26072693 268.51564026 C-4.33171439 268.5158356 -6.40259949 268.46442543 -8.47265625 268.40234375 C-9.47265625 267.40234375 -9.47265625 267.40234375 -9.59291077 265.49778748 C-9.59069016 264.66505814 -9.58846954 263.8323288 -9.58618164 262.97436523 C-9.58606834 261.56301552 -9.58606834 261.56301552 -9.58595276 260.12315369 C-9.58079147 259.10024734 -9.57563019 258.077341 -9.5703125 257.0234375 C-9.56889755 255.98163834 -9.5674826 254.93983917 -9.56602478 253.86647034 C-9.56040705 250.52423281 -9.54785155 247.18206118 -9.53515625 243.83984375 C-9.53014353 241.58007909 -9.52558023 239.32031338 -9.52148438 237.06054688 C-9.51043186 231.50778984 -9.49367649 225.9550715 -9.47265625 220.40234375 C-10.42213717 220.40372644 -10.42213717 220.40372644 -11.39079952 220.40513706 C-26.77135413 220.42719243 -42.15190326 220.44375537 -57.53246975 220.45415592 C-64.97030135 220.45931884 -72.40812242 220.46636146 -79.84594727 220.4777832 C-86.32646967 220.48773016 -92.80698444 220.49419721 -99.28751427 220.49643224 C-102.72096167 220.49773933 -106.15438725 220.50082505 -109.58782768 220.50807381 C-113.41459446 220.51608791 -117.2413396 220.51633488 -121.06811523 220.51586914 C-122.2146608 220.51946442 -123.36120636 220.52305969 -124.54249573 220.52676392 C-126.09696915 220.52470192 -126.09696915 220.52470192 -127.68284607 220.52259827 C-128.58896857 220.52352006 -129.49509108 220.52444185 -130.42867184 220.52539158 C-132.47265625 220.40234375 -132.47265625 220.40234375 -133.47265625 219.40234375 C-134.21423963 212.5176131 -134.13119912 205.49865468 -134.26220703 198.58105469 C-134.31841665 196.24337701 -134.39975714 193.90614527 -134.50830078 191.5703125 C-135.27949094 174.64764453 -133.07283656 164.31567645 -122.03845215 151.27423096 C-120.03910695 148.88404159 -118.29689783 146.35637135 -116.5625 143.76953125 C-115.51287472 142.27132489 -114.46213112 140.77390126 -113.41015625 139.27734375 C-112.83346191 138.45516357 -112.25676758 137.6329834 -111.66259766 136.78588867 C-105.46576812 127.95646913 -99.24121701 119.1466335 -93.01367188 110.33886719 C-85.39666581 99.56421041 -77.81639702 88.76435097 -70.25488281 77.95068359 C-67.32888892 73.76691315 -64.40067315 69.58469851 -61.47265625 65.40234375 C-60.30597866 63.73568473 -59.139312 62.06901806 -57.97265625 60.40234375 C-55.63932292 57.06901042 -53.30598958 53.73567708 -50.97265625 50.40234375 C-50.10592285 49.16411865 -50.10592285 49.16411865 -49.22167969 47.90087891 C-48.05835567 46.23903384 -46.89494461 44.5772497 -45.73144531 42.91552734 C-42.76290909 38.67559283 -39.79602681 34.43451647 -36.83203125 30.19140625 C-35.92517578 28.89396484 -35.92517578 28.89396484 -35 27.5703125 C-33.87181258 25.95613666 -32.74414651 24.34159621 -31.6171875 22.7265625 C-30.56220507 21.21760231 -29.49273685 19.71865472 -28.4082489 18.23075867 C-26.97155338 16.13136495 -25.73866078 14.11312419 -24.51789856 11.89704895 C-18.17615346 0.98205763 -12.17763377 -0.57490845 0 0 Z M-6.47265625 75.40234375 C-7.90707712 77.61706302 -9.29092884 79.84676818 -10.66015625 82.1015625 C-16.38499985 91.39139495 -22.47063684 100.42115057 -28.59683228 109.44946289 C-30.50881649 112.26815198 -32.41651941 115.08969398 -34.32299805 117.91210938 C-39.06686975 124.93469134 -43.81333472 131.95550956 -48.56884766 138.97021484 C-50.76027603 142.20339444 -52.94552411 145.44064847 -55.12524414 148.68173218 C-55.89316773 149.82086868 -56.66364335 150.9582893 -57.43676758 152.09390259 C-58.48233393 153.62997409 -59.51880766 155.17222338 -60.5546875 156.71484375 C-61.12421143 157.55660156 -61.69373535 158.39835937 -62.28051758 159.265625 C-63.71626944 161.43118394 -63.71626944 161.43118394 -63.47265625 164.40234375 C-44.33265625 164.40234375 -25.19265625 164.40234375 -5.47265625 164.40234375 C-5.47265625 135.03234375 -5.47265625 105.66234375 -5.47265625 75.40234375 C-5.80265625 75.40234375 -6.13265625 75.40234375 -6.47265625 75.40234375 Z " fill="#8A62C0" transform="translate(136.47265625,28.59765625)"/>
<path d="M0 0 C0.77915771 0.00202423 1.55831543 0.00404846 2.36108398 0.00613403 C3.15635498 0.00517731 3.95162598 0.00422058 4.77099609 0.00323486 C6.45564859 0.0025531 8.1403037 0.00440711 9.82495117 0.00857544 C12.41257595 0.01392378 15.00002714 0.00863034 17.58764648 0.00222778 C19.22045937 0.00288857 20.85327215 0.00416973 22.48608398 0.00613403 C23.2652417 0.0041098 24.04439941 0.00208557 24.84716797 0 C30.30863294 0.02399549 30.30863294 0.02399549 31.42358398 1.13894653 C31.58375565 3.94871171 31.68308933 6.73668249 31.73999023 9.54910278 C31.76077133 10.39113754 31.78155243 11.2331723 31.80296326 12.10072327 C31.8685521 14.80087832 31.92738674 17.50113371 31.98608398 20.20144653 C32.02926035 22.02762895 32.07287434 23.85380107 32.11694336 25.67996216 C32.22424293 30.16618645 32.32548364 34.65251203 32.42358398 39.13894653 C33.50365723 39.13370972 34.58373047 39.1284729 35.6965332 39.12307739 C39.69587376 39.10500545 43.6952107 39.09350647 47.69458008 39.08401489 C49.42700812 39.07897971 51.15943191 39.07215121 52.8918457 39.06350708 C55.37899832 39.05140588 57.86609485 39.04571015 60.35327148 39.04129028 C61.13040497 39.036129 61.90753845 39.03096771 62.70822144 39.02565002 C68.19584057 39.02507483 68.19584057 39.02507483 70.42358398 40.13894653 C70.42358398 51.68894653 70.42358398 63.23894653 70.42358398 75.13894653 C57.55358398 75.13894653 44.68358398 75.13894653 31.42358398 75.13894653 C31.46318804 87.92888449 31.46318804 87.92888449 31.51367188 100.71878052 C31.51659102 102.31586643 31.51913958 103.91295308 31.52124023 105.51004028 C31.5263562 106.34700439 31.53147217 107.18396851 31.53674316 108.04629517 C31.53705323 110.07752919 31.48598586 112.10867124 31.42358398 114.13894653 C29.72815714 115.83437337 27.61752498 115.2669408 25.35586548 115.27789307 C24.64860321 115.27586884 23.94134094 115.2738446 23.21264648 115.27175903 C22.48870697 115.27271576 21.76476746 115.27367249 21.01889038 115.2746582 C19.48386549 115.27534006 17.94883774 115.27348539 16.41381836 115.26931763 C14.06544483 115.26398482 11.71726391 115.26925437 9.36889648 115.27566528 C7.87931273 115.2750042 6.38972909 115.27372241 4.90014648 115.27175903 C4.19693268 115.27378326 3.49371887 115.2758075 2.76919556 115.27789307 C-0.2907937 115.26321697 -2.64918289 115.11469091 -5.57641602 114.13894653 C-7.20425259 110.41317798 -6.70188449 106.08914791 -6.67407227 102.09207153 C-6.67306519 101.40806274 -6.67205811 100.72405396 -6.67102051 100.01931763 C-6.66580732 97.47584343 -6.65184608 94.93239321 -6.63891602 92.38894653 C-6.60797852 83.85019653 -6.60797852 83.85019653 -6.57641602 75.13894653 C-19.11641602 75.13894653 -31.65641602 75.13894653 -44.57641602 75.13894653 C-44.57641602 63.58894653 -44.57641602 52.03894653 -44.57641602 40.13894653 C-33.32641602 39.01394653 -33.32641602 39.01394653 -27.47485352 39.26004028 C-26.24379883 39.30838013 -25.01274414 39.35671997 -23.74438477 39.40652466 C-22.49270508 39.46259888 -21.24102539 39.5186731 -19.95141602 39.57644653 C-18.66106445 39.62865356 -17.37071289 39.6808606 -16.04125977 39.73464966 C-12.88599863 39.86319733 -9.73114821 39.99810457 -6.57641602 40.13894653 C-6.58165283 38.96275757 -6.58688965 37.7865686 -6.59228516 36.57473755 C-6.61033264 32.22692623 -6.62184709 27.87911823 -6.63134766 23.53128052 C-6.63638846 21.64650924 -6.643221 19.76174189 -6.65185547 17.87698364 C-6.66393219 15.17393018 -6.6696467 12.47092822 -6.67407227 9.76785278 C-6.67923355 8.91993668 -6.68439484 8.07202057 -6.68971252 7.19841003 C-6.68990796 5.17823585 -6.63847812 3.15816719 -6.57641602 1.13894653 C-4.78811153 -0.64935795 -2.3806045 0.01045942 0 0 Z " fill="#FDFDFD" transform="translate(757.576416015625,2.861053466796875)"/>
<path d="M0 0 C0.33 0 0.66 0 1 0 C1 43.89 1 87.78 1 133 C-1.5654594 130.4345406 -1.54046087 128.52313332 -2 125 C-1.67 125 -1.34 125 -1 125 C-0.67 83.75 -0.34 42.5 0 0 Z " fill="#E7E3E2" transform="translate(382,37)"/>
<path d="M0 0 C12.87 0 25.74 0 39 0 C39 0.33 39 0.66 39 1 C26.46 1 13.92 1 1 1 C1.01160156 3.80371094 1.02320313 6.60742188 1.03515625 9.49609375 C1.04294633 12.19995002 1.04902337 14.90380506 1.05493164 17.60766602 C1.05997244 19.4924373 1.06680498 21.37720465 1.07543945 23.26196289 C1.08751617 25.96501636 1.09323068 28.66801831 1.09765625 31.37109375 C1.10281754 32.21900986 1.10797882 33.06692596 1.11329651 33.9405365 C1.11349195 35.96071068 1.06206211 37.98077934 1 40 C0 41 0 41 -3.05102539 41.11352539 C-4.39991271 41.11336634 -5.74880614 41.10767612 -7.09765625 41.09765625 C-8.16094398 41.09553383 -8.16094398 41.09553383 -9.24571228 41.09336853 C-11.51801712 41.08775443 -13.79022475 41.07519963 -16.0625 41.0625 C-17.59960796 41.05748681 -19.13671745 41.05292359 -20.67382812 41.04882812 C-24.44925642 41.03778042 -28.22461171 41.02050641 -32 41 C-32 40.67 -32 40.34 -32 40 C-21.77 39.34 -11.54 38.68 -1 38 C-0.67 25.46 -0.34 12.92 0 0 Z " fill="#EFEFEF" transform="translate(788,77)"/>
<path d="M0 0 C30.195 0.495 30.195 0.495 61 1 C61 1.33 61 1.66 61 2 C53.34200793 2.15372667 45.68392575 2.30190825 38.02569008 2.4429636 C34.46986634 2.50863284 30.91410079 2.5762292 27.35839844 2.64819336 C23.27288053 2.73079675 19.18724857 2.80508335 15.1015625 2.87890625 C13.82133209 2.90594131 12.54110168 2.93297638 11.22207642 2.96083069 C10.04100311 2.98092697 8.85992981 3.00102325 7.64306641 3.02172852 C6.59937897 3.04171402 5.55569153 3.06169952 4.4803772 3.08229065 C2 3 2 3 0 2 C0 1.34 0 0.68 0 0 Z " fill="#F2F2F2" transform="translate(383,36)"/>
<path d="M0 0 C0.33 0 0.66 0 1 0 C1.02687279 1.81242052 1.04633715 3.62495233 1.0625 5.4375 C1.07410156 6.44683594 1.08570313 7.45617187 1.09765625 8.49609375 C1 11 1 11 0 12 C-2.3756852 12.0883967 -4.72208674 12.11530305 -7.09765625 12.09765625 C-8.16094398 12.09553383 -8.16094398 12.09553383 -9.24571228 12.09336853 C-11.51801712 12.08775443 -13.79022475 12.07519963 -16.0625 12.0625 C-17.59960796 12.05748681 -19.13671745 12.05292359 -20.67382812 12.04882812 C-24.44925642 12.03778042 -28.22461171 12.02050641 -32 12 C-32 11.67 -32 11.34 -32 11 C-21.77 10.34 -11.54 9.68 -1 9 C-0.67 6.03 -0.34 3.06 0 0 Z " fill="#E0E0E0" transform="translate(788,106)"/>
<path d="M0 0 C0.33 0.66 0.66 1.32 1 2 C-0.34314342 4.5519725 -1.84085884 6.79801314 -3.625 9.0625 C-5.05021833 11.07076219 -5.57066644 12.59573204 -6 15 C-7.32 14.67 -8.64 14.34 -10 14 C-6.7 9.38 -3.4 4.76 0 0 Z " fill="#896BB4" transform="translate(45,137)"/>
<path d="M0 0 C0 4.82034999 -1.33364049 7.28604338 -4.625 10.8125 C-5.40875 11.534375 -6.1925 12.25625 -7 13 C-7.66 12.67 -8.32 12.34 -9 12 C-6.03 8.04 -3.06 4.08 0 0 Z " fill="#8B67B3" transform="translate(69,103)"/>
<path d="M0 0 C0.99 0.66 1.98 1.32 3 2 C1.85845641 3.83600745 0.71165684 5.66874805 -0.4375 7.5 C-1.07558594 8.5209375 -1.71367188 9.541875 -2.37109375 10.59375 C-2.90863281 11.3878125 -3.44617188 12.181875 -4 13 C-4.33 13 -4.66 13 -5 13 C-5.1875 10.625 -5.1875 10.625 -5 8 C-4.01 7.34 -3.02 6.68 -2 6 C-0.78715124 2.94570927 -0.78715124 2.94570927 0 0 Z " fill="#886DAB" transform="translate(115,122)"/>
<path d="M0 0 C0.66 0 1.32 0 2 0 C2.66 3.3 3.32 6.6 4 10 C2 8 2 8 1 5 C0.01 7.31 -0.98 9.62 -2 12 C-3.12377697 8.69564916 -2.89554742 6.9493138 -1.5625 3.75 C-1.27503906 3.04359375 -0.98757813 2.3371875 -0.69140625 1.609375 C-0.46324219 1.07828125 -0.23507812 0.5471875 0 0 Z " fill="#E0DDDE" transform="translate(297,108)"/>
<path d="M0 0 C0.99 0 1.98 0 3 0 C1.44298069 4.67105792 -1.08447373 8.08705685 -4 12 C-4.33 11.34 -4.66 10.68 -5 10 C-4.67 9.01 -4.34 8.02 -4 7 C-3.34 7 -2.68 7 -2 7 C-1.855625 6.401875 -1.71125 5.80375 -1.5625 5.1875 C-1.1127561 3.43849596 -0.57107659 1.71322977 0 0 Z " fill="#8B6CB0" transform="translate(78,178)"/>
<path d="M0 0 C0.99 0 1.98 0 3 0 C1.54955729 4.10958767 -0.51110752 7.43258745 -3 11 C-3.625 9.1875 -3.625 9.1875 -4 7 C-3.34 6.01 -2.68 5.02 -2 4 C-1.34 4 -0.68 4 0 4 C0 2.68 0 1.36 0 0 Z " fill="#8A6BB0" transform="translate(86,166)"/>
<path d="M0 0 C0.66 0.66 1.32 1.32 2 2 C0.02 4.97 -1.96 7.94 -4 11 C-4.33 9.68 -4.66 8.36 -5 7 C-4.01 6.67 -3.02 6.34 -2 6 C-0.77479736 2.99152582 -0.77479736 2.99152582 0 0 Z " fill="#8A68B3" transform="translate(96,152)"/>
<path d="M0 0 C0 0.99 0 1.98 0 3 C-3.96 2.67 -7.92 2.34 -12 2 C-12 1.67 -12 1.34 -12 1 C-10.56274129 0.83126522 -9.12518162 0.66509263 -7.6875 0.5 C-6.88699219 0.4071875 -6.08648437 0.314375 -5.26171875 0.21875 C-3 0 -3 0 0 0 Z " fill="#8A6AAC" transform="translate(168,294)"/>
<path d="M0 0 C0.33 0.99 0.66 1.98 1 3 C3.31 3.33 5.62 3.66 8 4 C8 4.33 8 4.66 8 5 C5.03 5 2.06 5 -1 5 C-0.67 3.35 -0.34 1.7 0 0 Z " fill="#EDECEC" transform="translate(267,197)"/>
<path d="M0 0 C0.99 0.33 1.98 0.66 3 1 C3 1.66 3 2.32 3 3 C-5.57142857 4.42857143 -5.57142857 4.42857143 -9 2 C-6.94921875 1.77213542 -4.8984375 1.54427083 -2.84765625 1.31640625 C-0.98859771 1.18113386 -0.98859771 1.18113386 0 0 Z " fill="#905FCD" transform="translate(125,192)"/>
<path d="M0 0 C0.33 0 0.66 0 1 0 C1 3.3 1 6.6 1 10 C-1.59482129 7.40517871 -1.69990302 5.60116375 -2 2 C-1.34 1.34 -0.68 0.68 0 0 Z " fill="#E2DDDC" transform="translate(382,160)"/>
</svg>
