<?xml version="1.0" encoding="UTF-8"?>
<svg version="1.1" xmlns="http://www.w3.org/2000/svg" width="48" height="48">
<path d="M0 0 C0.72896484 -0.020625 1.45792969 -0.04125 2.20898438 -0.0625 C7.45766245 -0.1009871 7.45766245 -0.1009871 9.88671875 1.30859375 C11.66062072 4.23759468 12.80238407 7.34867696 13.9375 10.5625 C14.19217041 11.26584473 14.44684082 11.96918945 14.70922852 12.69384766 C15.23642752 14.15260059 15.76024142 15.61258109 16.28076172 17.07373047 C17.03462959 19.17241198 17.81183932 21.26075751 18.59765625 23.34765625 C19.06545623 24.60664007 19.53292018 25.86574882 20 27.125 C20.63228516 28.82269531 20.63228516 28.82269531 21.27734375 30.5546875 C22.0625 33.25 22.0625 33.25 21.0625 35.25 C19.4125 35.25 17.7625 35.25 16.0625 35.25 C15.7221875 34.0434375 15.7221875 34.0434375 15.375 32.8125 C14.33401065 30.1050568 14.33401065 30.1050568 12 29.375 C7.92615129 29.20164474 4.10465982 29.70702331 0.0625 30.25 C3.0325 30.58 6.0025 30.91 9.0625 31.25 C9.0625 32.9 9.0625 34.55 9.0625 36.25 C6.41659986 36.27684679 3.77096904 36.29676357 1.125 36.3125 C0.37025391 36.32087891 -0.38449219 36.32925781 -1.16210938 36.33789062 C-3.08744313 36.34652441 -5.01285581 36.30224333 -6.9375 36.25 C-7.9375 35.25 -7.9375 35.25 -8 32.1875 C-7.9690625 30.7334375 -7.9690625 30.7334375 -7.9375 29.25 C-9.6390625 29.2809375 -9.6390625 29.2809375 -11.375 29.3125 C-14.9375 29.25 -14.9375 29.25 -15.9375 28.25 C-15.97830783 26.25041636 -15.98004356 24.24954746 -15.9375 22.25 C-18.2475 22.25 -20.5575 22.25 -22.9375 22.25 C-23.2675 21.59 -23.5975 20.93 -23.9375 20.25 C-23.34582031 19.46496094 -22.75414062 18.67992188 -22.14453125 17.87109375 C-20.95923828 16.29521484 -20.95923828 16.29521484 -19.75 14.6875 C-19.3387085 14.1411792 -18.92741699 13.5948584 -18.50366211 13.03198242 C-16.28438954 10.07572406 -14.10866737 7.0984729 -12 4.0625 C-8.61479623 -0.55368695 -5.35075499 0.03764823 0 0 Z M3.0625 11.25 C1.85977181 13.65545638 1.96178528 15.19996953 2 17.875 C2.00902344 18.69226563 2.01804687 19.50953125 2.02734375 20.3515625 C2.03894531 20.97804688 2.05054687 21.60453125 2.0625 22.25 C4.0425 22.25 6.0225 22.25 8.0625 22.25 C6.7425 18.62 5.4225 14.99 4.0625 11.25 C3.7325 11.25 3.4025 11.25 3.0625 11.25 Z M-8.9375 13.25 C-11.87407015 16.90152843 -11.87407015 16.90152843 -12.9375 21.25 C-10.88913118 20.68637698 -10.88913118 20.68637698 -8.9375 19.25 C-8.12165432 16.19091587 -8.12165432 16.19091587 -7.9375 13.25 C-8.2675 13.25 -8.5975 13.25 -8.9375 13.25 Z " fill="#8862BD" transform="translate(24.9375,5.75)"/>
<path d="M0 0 C2.97 0 5.94 0 9 0 C10.55368418 3.89394243 12.10175693 7.79005521 13.64477539 11.68823242 C14.16994833 13.01272926 14.69662247 14.33663192 15.22485352 15.65991211 C15.98593789 17.56728567 16.74151316 19.4767644 17.49609375 21.38671875 C17.95169678 22.53358154 18.4072998 23.68044434 18.87670898 24.86206055 C19.85737613 27.60157693 20.62314069 30.11773023 21 33 C20 34 20 34 17.4375 34.0625 C16.633125 34.041875 15.82875 34.02125 15 34 C14.855625 33.21625 14.71125 32.4325 14.5625 31.625 C13.28463143 28.84843237 13.28463143 28.84843237 10.86328125 28.22265625 C8.58025309 27.73164391 6.31304073 27.31887599 4 27 C4 25.35 4 23.7 4 22 C5.32 22 6.64 22 8 22 C8 21.01 8 20.02 8 19 C7.01 19 6.02 19 5 19 C4.01 16.69 3.02 14.38 2 12 C1.01 12.495 1.01 12.495 0 13 C0 8.71 0 4.42 0 0 Z " fill="#E4E3E5" transform="translate(26,7)"/>
<path d="M0 0 C0.99 0 1.98 0 3 0 C3 1.65 3 3.3 3 5 C4.65 5.33 6.3 5.66 8 6 C8.38897161 7.62171239 8.76078298 9.24754925 9.125 10.875 C9.33382813 11.77992187 9.54265625 12.68484375 9.7578125 13.6171875 C9.83773438 14.40351563 9.91765625 15.18984375 10 16 C9.34 16.66 8.68 17.32 8 18 C8 18.99 8 19.98 8 21 C10.97 21.33 13.94 21.66 17 22 C17 23.65 17 25.3 17 27 C14.35409986 27.02684679 11.70846904 27.04676357 9.0625 27.0625 C8.30775391 27.07087891 7.55300781 27.07925781 6.77539062 27.08789062 C4.85005687 27.09652441 2.92464419 27.05224333 1 27 C0 26 0 26 -0.0625 22.9375 C-0.041875 21.968125 -0.02125 20.99875 0 20 C-1.98 19.67 -3.96 19.34 -6 19 C-6 17.02 -6 15.04 -6 13 C-5.236875 12.87625 -4.47375 12.7525 -3.6875 12.625 C0.19461823 10.2776727 0.42971619 7.36806834 1.51953125 3.1171875 C1.67808594 2.41851563 1.83664063 1.71984375 2 1 C1.34 0.67 0.68 0.34 0 0 Z " fill="#8D6BC0" transform="translate(17,15)"/>
<path d="M0 0 C1.65 0.99 3.3 1.98 5 3 C5.66 2.34 6.32 1.68 7 1 C7.66 1.33 8.32 1.66 9 2 C8.67 3.65 8.34 5.3 8 7 C7.34 6.67 6.68 6.34 6 6 C4.68 8.31 3.36 10.62 2 13 C5.16666667 11.16666667 5.16666667 11.16666667 7 8 C6.67 9.65 6.34 11.3 6 13 C4.35 13.33 2.7 13.66 1 14 C1 15.98 1 17.96 1 20 C3.31 20 5.62 20 8 20 C8 20.33 8 20.66 8 21 C1.84765625 21.09765625 1.84765625 21.09765625 0 21 C-1 20 -1 20 -1.0625 16.9375 C-1.041875 15.968125 -1.02125 14.99875 -1 14 C-3.31 14 -5.62 14 -8 14 C-8.33 13.34 -8.66 12.68 -9 12 C-6.03 8.04 -3.06 4.08 0 0 Z " fill="#7A5BA9" transform="translate(10,14)"/>
<path d="M0 0 C0.33 0 0.66 0 1 0 C1 1.65 1 3.3 1 5 C3.31 5 5.62 5 8 5 C7.34 3.35 6.68 1.7 6 0 C6.66 0.33 7.32 0.66 8 1 C9.53668865 1.22467831 11.07968054 1.40796805 12.625 1.5625 C13.44226562 1.64628906 14.25953125 1.73007812 15.1015625 1.81640625 C15.72804688 1.87699219 16.35453125 1.93757813 17 2 C17 3.65 17 5.3 17 7 C14.35409986 7.02684679 11.70846904 7.04676357 9.0625 7.0625 C7.93038086 7.07506836 7.93038086 7.07506836 6.77539062 7.08789062 C4.85005687 7.09652441 2.92464419 7.05224333 1 7 C0 6 0 6 -0.0625 2.9375 C-0.041875 1.968125 -0.02125 0.99875 0 0 Z " fill="#504662" transform="translate(17,35)"/>
<path d="M0 0 C0 3 0 3 -1 5 C1.31 5 3.62 5 6 5 C6 4.01 6 3.02 6 2 C6.99 2.33 7.98 2.66 9 3 C8.67 3.66 8.34 4.32 8 5 C11.16666667 3.16666667 11.16666667 3.16666667 13 0 C12.67 1.65 12.34 3.3 12 5 C10.35 5.33 8.7 5.66 7 6 C7 7.98 7 9.96 7 12 C9.31 12 11.62 12 14 12 C14 12.33 14 12.66 14 13 C7.84765625 13.09765625 7.84765625 13.09765625 6 13 C5 12 5 12 4.9375 8.9375 C4.958125 7.968125 4.97875 6.99875 5 6 C2.69 6 0.38 6 -2 6 C-2.33 5.34 -2.66 4.68 -3 4 C-2.01 2.68 -1.02 1.36 0 0 Z " fill="#45345C" transform="translate(4,22)"/>
<path d="M0 0 C0.33 0 0.66 0 1 0 C1 2.31 1 4.62 1 7 C4.60992379 6.34414811 4.60992379 6.34414811 8 5 C8 5.99 8 6.98 8 8 C6.68 8 5.36 8 4 8 C4 9.65 4 11.3 4 13 C5.32 13.33 6.64 13.66 8 14 C4.7 14 1.4 14 -2 14 C-1.505 13.0409375 -1.505 13.0409375 -1 12.0625 C0.33056928 7.98763159 0.16659199 4.24809575 0 0 Z " fill="#534270" transform="translate(26,21)"/>
<path d="M0 0 C1.11761719 0.02707031 1.11761719 0.02707031 2.2578125 0.0546875 C4.08909701 0.10164351 5.91971649 0.17338348 7.75 0.25 C7.75 0.58 7.75 0.91 7.75 1.25 C5.44 1.25 3.13 1.25 0.75 1.25 C0.42 1.91 0.09 2.57 -0.25 3.25 C-3.22 3.25 -6.19 3.25 -9.25 3.25 C-9.91 4.9 -10.57 6.55 -11.25 8.25 C-12.24 8.25 -13.23 8.25 -14.25 8.25 C-11.18072257 1.08835267 -7.56365824 -0.3474472 0 0 Z " fill="#554173" transform="translate(25.25,5.75)"/>
<path d="M0 0 C2.97 0 5.94 0 9 0 C8.34 1.32 7.68 2.64 7 4 C7 4.66 7 5.32 7 6 C4.69 6 2.38 6 0 6 C0 4.02 0 2.04 0 0 Z " fill="#8663B9" transform="translate(11,28)"/>
<path d="M0 0 C0 0.66 0 1.32 0 2 C-0.66 2 -1.32 2 -2 2 C-2 2.99 -2 3.98 -2 5 C-4.31 5 -6.62 5 -9 5 C-6.96456769 -0.67013285 -5.87860125 -1.3923003 0 0 Z " fill="#8665B7" transform="translate(12,22)"/>
<path d="M0 0 C2.36556709 2.36556709 2.58244041 3.74303521 3 7 C2 8 2 8 -0.5625 8.0625 C-1.366875 8.041875 -2.17125 8.02125 -3 8 C-3 7.34 -3 6.68 -3 6 C-2.34 6 -1.68 6 -1 6 C-0.67 4.02 -0.34 2.04 0 0 Z " fill="#9C9C9D" transform="translate(44,33)"/>
<path d="M0 0 C2.64 0 5.28 0 8 0 C7.67 0.99 7.34 1.98 7 3 C4.69 3 2.38 3 0 3 C0 2.01 0 1.02 0 0 Z " fill="#EAE6EA" transform="translate(26,37)"/>
<path d="M0 0 C0.99 0.33 1.98 0.66 3 1 C2.67 2.65 2.34 4.3 2 6 C1.34 5.67 0.68 5.34 0 5 C-0.66 5.66 -1.32 6.32 -2 7 C-1.125 1.125 -1.125 1.125 0 0 Z " fill="#543D78" transform="translate(16,15)"/>
<path d="M0 0 C0.99 0.33 1.98 0.66 3 1 C3 1.99 3 2.98 3 4 C1.68 3.67 0.36 3.34 -1 3 C-0.67 2.01 -0.34 1.02 0 0 Z " fill="#9A9A9B" transform="translate(36,37)"/>
</svg>
